<svg xmlns="http://www.w3.org/2000/svg" xmlns:xlink="http://www.w3.org/1999/xlink"><symbol id="close" viewBox="0 0 26 26">
<path d="M15.0233 13L25.2772 0.777344C25.449 0.574219 25.3045 0.265625 25.0389 0.265625H21.9217C21.7381 0.265625 21.5623 0.347656 21.4412 0.488281L12.9842 10.5703L4.52717 0.488281C4.40998 0.347656 4.2342 0.265625 4.0467 0.265625H0.929512C0.663887 0.265625 0.519356 0.574219 0.691231 0.777344L10.9451 13L0.691231 25.2227C0.652729 25.2679 0.628029 25.3233 0.620062 25.3822C0.612094 25.4411 0.621195 25.501 0.646283 25.5549C0.671371 25.6088 0.711394 25.6544 0.761598 25.6862C0.811803 25.718 0.87008 25.7347 0.929512 25.7344H4.0467C4.23029 25.7344 4.40607 25.6523 4.52717 25.5117L12.9842 15.4297L21.4412 25.5117C21.5584 25.6523 21.7342 25.7344 21.9217 25.7344H25.0389C25.3045 25.7344 25.449 25.4258 25.2772 25.2227L15.0233 13Z" fill="white"/>
</symbol><symbol id="menu" viewBox="0 0 37 31">
<path d="M3.08333 7.7436C3.08333 7.03319 3.77092 6.45839 4.61729 6.45839L16.966 6.45839C17.3729 6.45839 17.763 6.5938 18.0507 6.83482C18.3384 7.07584 18.5 7.40274 18.5 7.7436C18.5 8.08446 18.3384 8.41136 18.0507 8.65238C17.763 8.8934 17.3729 9.02881 16.966 9.02881L4.61729 9.02881C3.76938 9.02881 3.08333 8.45402 3.08333 7.7436Z" fill="white"/>
<path d="M3.08316 15.5C3.08316 14.7895 3.77075 14.2147 4.61712 14.2147L32.3825 14.2147C32.7894 14.2147 33.1795 14.3501 33.4672 14.5912C33.7549 14.8322 33.9165 15.1591 33.9165 15.4999C33.9165 15.8408 33.7549 16.1677 33.4672 16.4087C33.1795 16.6498 32.7894 16.7852 32.3825 16.7852L4.61712 16.7852C3.76921 16.7852 3.08316 16.2091 3.08316 15.5Z" fill="white"/>
<path d="M4.61713 21.9711C4.2103 21.9711 3.82013 22.1065 3.53246 22.3475C3.24478 22.5885 3.08317 22.9154 3.08317 23.2563C3.08317 23.5972 3.24478 23.9241 3.53246 24.1651C3.82013 24.4061 4.2103 24.5415 4.61713 24.5415L23.1325 24.5415C23.334 24.5415 23.5335 24.5083 23.7196 24.4437C23.9057 24.3791 24.0748 24.2844 24.2172 24.1651C24.3597 24.0457 24.4726 23.9041 24.5497 23.7481C24.6268 23.5922 24.6665 23.4251 24.6665 23.2563C24.6665 23.0875 24.6268 22.9204 24.5497 22.7645C24.4726 22.6085 24.3597 22.4669 24.2172 22.3475C24.0748 22.2282 23.9057 22.1335 23.7196 22.0689C23.5335 22.0043 23.334 21.9711 23.1325 21.9711L4.61713 21.9711Z" fill="white"/>
</symbol><symbol id="phone" viewBox="0 0 21 20">
<path d="M13.5319 14.2139L15.2541 12.491C15.4861 12.2618 15.7796 12.1049 16.0989 12.0394C16.4183 11.9739 16.7498 12.0025 17.0532 12.1218L19.1521 12.9602C19.4588 13.0847 19.7217 13.2972 19.9077 13.5709C20.0938 13.8447 20.1947 14.1674 20.1978 14.4985V18.3442C20.196 18.5694 20.1487 18.7919 20.0586 18.9983C19.9686 19.2047 19.8378 19.3908 19.674 19.5453C19.5103 19.6998 19.3169 19.8195 19.1057 19.8973C18.8944 19.9751 18.6696 20.0093 18.4448 19.9979C3.73695 19.0826 0.769244 6.62239 0.207993 1.85368C0.181939 1.6195 0.205744 1.38246 0.27784 1.15814C0.349937 0.933831 0.468692 0.727331 0.626292 0.55223C0.783892 0.377128 0.976766 0.237394 1.19223 0.142219C1.40768 0.0470438 1.64085 -0.00141458 1.87637 3.14343e-05H5.58985C5.92123 0.0010127 6.24473 0.101149 6.51876 0.287561C6.79278 0.473973 7.00479 0.738135 7.12753 1.04607L7.96556 3.14584C8.08877 3.44817 8.1202 3.78011 8.05593 4.10021C7.99167 4.4203 7.83455 4.71436 7.6042 4.94565L5.88201 6.66854C5.88201 6.66854 6.87381 13.3832 13.5319 14.2139Z" fill="white"/>
</symbol></svg>